HIERARCHY
ROOT Hips
{
	OFFSET 0.000000 0.000000 0.000000
	CHANNELS 6 Xposition Yposition Zposition Zrotation Yrotation Xrotation 
	JOINT LeftUpLeg_virtual
	{
		OFFSET 0.000000 0.000000 0.000000
		CHANNELS 3 Zrotation Yrotation Xrotation
		JOINT LeftUpLeg
		{
			OFFSET 8.479694 -4.795517 -0.379053
			CHANNELS 3 Zrotation Yrotation Xrotation
			JOINT LeftLeg
			{
				OFFSET 0.485052 -32.551468 0.112863
				CHANNELS 3 Zrotation Yrotation Xrotation
				JOINT LeftFoot
				{
					OFFSET 0.438033 -32.635670 -3.012641
					CHANNELS 3 Zrotation Yrotation Xrotation
					JOINT LeftToeBase
					{
						OFFSET 0.970169 -13.225353 11.864223
						CHANNELS 3 Zrotation Yrotation Xrotation
						End Site
						{
							OFFSET 0.000000 0.000000 0.000000
						}
					}
				}
			}
		}
	}
	JOINT RightUpLeg_virtual
	{
		OFFSET 0.000000 0.000000 0.000000
		CHANNELS 3 Zrotation Yrotation Xrotation
		JOINT RightUpLeg
		{
			OFFSET -8.479694 -4.795517 -0.379053
			CHANNELS 3 Zrotation Yrotation Xrotation
			JOINT RightLeg
			{
				OFFSET -0.484100 -32.551483 0.112903
				CHANNELS 3 Zrotation Yrotation Xrotation
				JOINT RightFoot
				{
					OFFSET -0.438985 -32.635651 -3.012681
					CHANNELS 3 Zrotation Yrotation Xrotation
					JOINT RightToeBase
					{
						OFFSET -0.970169 -13.225354 11.864223
						CHANNELS 3 Zrotation Yrotation Xrotation
						End Site
						{
							OFFSET 0.000000 0.000000 0.000000
						}
					}
				}
			}
		}
	}
	JOINT Spine_virtual
	{
		OFFSET 0.000000 0.000000 0.000000
		CHANNELS 3 Zrotation Yrotation Xrotation
		JOINT Spine
		{
			OFFSET 0.000000 7.722015 1.166203
			CHANNELS 3 Zrotation Yrotation Xrotation
			JOINT Spine1
			{
				OFFSET 0.000000 12.024086 0.248766
				CHANNELS 3 Zrotation Yrotation Xrotation
				JOINT Spine2
				{
					OFFSET -0.000000 11.503036 -0.491240
					CHANNELS 3 Zrotation Yrotation Xrotation
					JOINT Neck_virtual
					{
						OFFSET 0.000000 0.000000 0.000000
						CHANNELS 3 Zrotation Yrotation Xrotation
						JOINT Neck
						{
							OFFSET 0.000000 18.430687 -3.123054
							CHANNELS 3 Zrotation Yrotation Xrotation
							JOINT Head
							{
								OFFSET -0.000000 9.051071 1.034021
								CHANNELS 3 Zrotation Yrotation Xrotation
								End Site
								{
									OFFSET 0.000000 0.000000 0.000000
								}
							}
						}
					}
					JOINT LeftShoulder_virtual
					{
						OFFSET 0.000000 0.000000 0.000000
						CHANNELS 3 Zrotation Yrotation Xrotation
						JOINT LeftShoulder
						{
							OFFSET 6.197824 13.665230 -4.064723
							CHANNELS 3 Zrotation Yrotation Xrotation
							JOINT LeftArm
							{
								OFFSET 7.778132 -0.187073 -1.709282
								CHANNELS 3 Zrotation Yrotation Xrotation
								JOINT LeftForeArm
								{
									OFFSET 21.954697 0.000000 -2.041093
									CHANNELS 3 Zrotation Yrotation Xrotation
									JOINT LeftHand
									{
										OFFSET 22.992908 0.000000 -0.870901
										CHANNELS 3 Zrotation Yrotation Xrotation
										End Site
										{
											OFFSET 0.000000 0.000000 0.000000
										}
									}
								}
							}
						}
					}
					JOINT RightShoulder_virtual
					{
						OFFSET 0.000000 0.000000 0.000000
						CHANNELS 3 Zrotation Yrotation Xrotation
						JOINT RightShoulder
						{
							OFFSET -6.197824 13.665230 -4.064723
							CHANNELS 3 Zrotation Yrotation Xrotation
							JOINT RightArm
							{
								OFFSET -7.778132 -0.187073 -1.709282
								CHANNELS 3 Zrotation Yrotation Xrotation
								JOINT RightForeArm
								{
									OFFSET -21.954697 0.000000 -2.041093
									CHANNELS 3 Zrotation Yrotation Xrotation
									JOINT RightHand
									{
										OFFSET -22.992908 0.000000 -0.870901
										CHANNELS 3 Zrotation Yrotation Xrotation
										End Site
										{
											OFFSET 0.000000 0.000000 0.000000
										}
									}
								}
							}
						}
					}
				}
			}
		}
	}
}
MOTION
Frames: 8
Frame Time: 0.033333
7.132811 81.636421 2.206733 -179.908412 3.020056 179.975198 -3.836730 0.528506 11.763541 -0.779860 -2.626230 -27.534297 4.593508 4.392196 24.042285 -4.466821 -8.148494 -6.552431 0.000000 0.000000 0.000000 0.150421 -0.479914 11.270980 -2.425752 1.150207 -21.803796 -1.789145 3.236809 26.039046 8.765780 7.347704 -9.638059 0.000000 0.000000 0.000000 2.917573 2.081574 2.853107 -6.223108 0.088675 -0.330800 1.536284 -3.118520 5.302133 0.027732 -0.012668 0.011313 1.291886 -2.273625 5.991814 -1.970373 2.684258 -10.972822 0.000000 0.000000 0.000000 2.456541 -1.281970 3.208123 10.477953 2.218293 -5.600183 -22.440858 7.213770 -36.478582 -4.779671 -23.469401 -3.542831 0.000000 0.000000 0.000000 -0.909782 -0.204827 2.862058 6.369255 -7.526398 -5.820727 21.006146 -12.342950 -44.975436 -0.264887 29.327439 -3.320718 0.000000 0.000000 0.000000 
6.774895 81.648163 2.396322 -179.900913 3.304657 179.974815 -3.996098 0.630474 11.630368 -1.083186 -2.542198 -27.480587 4.460806 4.633111 23.718226 -4.602164 -8.285473 -6.341408 0.000000 0.000000 0.000000 0.056871 -0.386797 11.179534 -2.614444 1.317717 -22.038181 -1.789869 3.251564 26.304628 8.843409 7.321531 -9.585055 0.000000 0.000000 0.000000 2.988705 2.067174 2.939986 -6.136791 0.127544 -0.313937 1.507551 -3.112238 5.265610 0.009704 -0.004963 -0.035862 1.288027 -2.267353 6.026539 -1.965997 2.540281 -10.946361 0.000000 0.000000 0.000000 2.419120 -1.288867 3.251549 10.463840 2.312162 -5.500431 -22.662337 7.557940 -36.578036 -4.703585 -23.396010 -3.691892 0.000000 0.000000 0.000000 -0.944151 -0.126364 2.827660 6.398906 -7.417793 -5.638281 20.816779 -12.303653 -44.817229 -0.398048 29.290115 -3.503949 0.000000 0.000000 0.000000 
6.366093 81.658318 2.598755 -179.997983 3.710100 179.946934 -4.154249 0.627745 11.449203 -1.353146 -2.637771 -27.362851 4.629110 4.786511 23.516200 -4.378305 -7.978790 -6.211241 0.000000 0.000000 0.000000 -0.087305 -0.425297 11.087114 -2.909325 1.436131 -22.339988 -1.695295 3.685775 26.555697 9.018164 7.398591 -9.188029 0.000000 0.000000 0.000000 2.994420 2.108010 3.062291 -6.023890 0.194389 -0.306806 1.405244 -3.122835 5.258633 -0.022034 -0.033615 -0.018162 1.301918 -2.148579 6.024196 -2.023016 2.657253 -10.930150 0.000000 0.000000 0.000000 2.447182 -1.303278 3.300679 10.333448 2.468592 -5.408359 -22.779101 7.972244 -36.826317 -4.735718 -23.175011 -3.703603 0.000000 0.000000 0.000000 -0.917664 -0.209739 2.886529 6.127023 -7.403124 -5.891334 20.667217 -12.111570 -44.670369 -0.281556 29.345655 -3.371748 0.000000 0.000000 0.000000 
5.990556 81.674393 2.749798 179.994363 4.298240 179.987342 -4.261488 0.655347 11.306325 -1.625175 -2.657601 -27.276734 4.799160 5.030422 23.342843 -4.197208 -7.663623 -6.014154 0.000000 0.000000 0.000000 -0.098420 -0.253690 10.942381 -3.134761 1.259400 -22.684764 -1.594987 4.136584 26.913741 9.236266 7.543036 -8.806155 0.000000 0.000000 0.000000 3.007873 2.168198 3.103160 -5.837585 0.256735 -0.310220 1.325197 -3.126380 5.282047 -0.014922 -0.030254 -0.019392 1.224666 -2.166058 6.001724 -2.086942 2.703786 -10.909651 0.000000 0.000000 0.000000 2.366024 -1.296223 3.292063 10.303097 2.685033 -5.399556 -22.907580 8.345607 -37.007310 -4.769665 -22.995898 -3.731653 0.000000 0.000000 0.000000 -1.004366 -0.200032 2.842707 6.110345 -7.301982 -5.907088 20.518626 -11.898167 -44.408988 -0.339104 29.452230 -3.417288 0.000000 0.000000 0.000000 
5.697214 81.699913 2.842449 -179.897238 4.831977 179.992041 -4.294430 0.725530 11.221823 -1.833485 -2.581200 -27.229164 4.993533 5.109308 23.275302 -4.135043 -7.414195 -5.879959 0.000000 0.000000 0.000000 0.074064 -0.076788 10.853975 -3.361658 0.808137 -23.044039 -1.226880 4.901153 27.303319 9.209391 7.554348 -8.491422 0.000000 0.000000 0.000000 3.019555 2.281540 3.175585 -5.617450 0.290350 -0.377710 1.275897 -3.122772 5.279577 -0.008800 -0.001196 -0.011532 1.096966 -2.256502 5.991324 -2.171934 2.703356 -10.882319 0.000000 0.000000 0.000000 2.231359 -1.341938 3.341378 10.310833 2.861133 -5.469059 -22.864958 8.432367 -37.139960 -4.814737 -22.873038 -3.671018 0.000000 0.000000 0.000000 -1.171794 -0.233071 2.781519 6.256728 -7.235423 -5.867092 20.344746 -11.762750 -43.947794 -0.517719 29.676059 -3.574540 0.000000 0.000000 0.000000 
5.479562 81.718155 2.867666 179.996317 5.174164 179.963218 -4.466505 0.733283 11.179943 -1.976295 -2.495531 -27.208509 5.081508 5.209930 23.240863 -4.015671 -7.077046 -5.822744 0.000000 0.000000 0.000000 -0.211844 -0.067929 10.860347 -3.499403 0.859841 -23.408914 -1.233888 4.780477 28.149467 9.346910 7.624851 -8.747516 0.000000 0.000000 0.000000 2.872217 2.400373 3.242988 -5.536383 0.252540 -0.542929 1.190398 -3.173286 5.242093 -0.019353 -0.029135 -0.014694 1.063219 -2.221584 6.045118 -2.252967 2.859208 -10.809935 0.000000 0.000000 0.000000 2.213303 -1.361688 3.370017 10.354713 2.945511 -5.395439 -22.754753 8.313047 -37.165597 -4.834541 -22.841942 -3.777247 0.000000 0.000000 0.000000 -1.194987 -0.241794 2.854910 6.321195 -7.188521 -5.957802 20.272191 -11.628027 -43.700575 -0.559293 29.972738 -3.546800 0.000000 0.000000 0.000000 
5.338872 81.721954 2.803548 -179.893577 5.420987 179.997464 -4.454535 0.851035 11.154526 -2.040461 -2.348113 -27.230060 5.216149 5.351760 23.347347 -4.259797 -7.113446 -5.856287 0.000000 0.000000 0.000000 -0.169892 0.200359 10.847247 -3.608327 0.722172 -23.587302 -1.197054 4.799721 29.364131 9.385985 7.650162 -9.597130 0.000000 0.000000 0.000000 2.829690 2.504900 3.046871 -5.417161 0.228230 -0.613975 1.196638 -3.165647 5.292005 0.018889 0.013302 0.030401 0.970851 -2.348364 5.954304 -2.315063 2.823004 -10.672323 0.000000 0.000000 0.000000 2.094885 -1.395474 3.262051 10.336994 2.903867 -5.496201 -22.531752 7.995033 -37.036158 -4.932407 -22.802291 -3.688033 0.000000 0.000000 0.000000 -1.280669 -0.319453 2.724766 6.404503 -7.146140 -6.030613 20.211566 -11.655730 -43.373562 -0.624034 30.213765 -3.585142 0.000000 0.000000 0.000000 
5.275034 81.714973 2.671817 -179.878086 5.660768 -179.982451 -4.516876 1.027988 11.140812 -2.038802 -2.282661 -27.268861 5.290962 5.398788 23.597446 -4.394573 -7.035440 -5.984585 0.000000 0.000000 0.000000 -0.354036 0.397819 10.841909 -3.614680 0.976642 -23.577929 -1.225229 4.742890 30.593029 9.398034 7.571182 -10.180791 0.000000 0.000000 0.000000 2.757188 2.634043 2.827228 -5.377420 0.197861 -0.745301 1.176303 -3.150777 5.255799 -0.063997 0.026722 0.046281 1.029920 -2.277658 5.973190 -2.380264 3.015071 -10.531455 0.000000 0.000000 0.000000 2.192719 -1.401030 3.199462 10.301793 2.814149 -5.502240 -22.350717 7.565954 -36.741063 -5.005606 -22.784703 -3.696060 0.000000 0.000000 0.000000 -1.206949 -0.293347 2.726552 6.429274 -7.080817 -5.966299 20.127941 -11.756578 -43.125975 -0.836970 30.381392 -3.803433 0.000000 0.000000 0.000000 
